<svg viewBox="0 0 77.5377 41.3049" xmlns="http://www.w3.org/2000/svg" xmlns:xlink="http://www.w3.org/1999/xlink" width="77.537720" height="41.304932" fill="none" customFrame="#000000">
	<defs>
		<g id="pixso_custom_effect_0">
			<effect x="0.000000" y="4.000000" visibility="visible" fill="rgb(0,0,0)" fill-opacity="0.25" effectType="dropShadow" stdDeviation="4" radius="0" />
		</g>
		<filter id="filter_0" width="77.537720" height="41.304932" x="0.000000" y="0.000000" filterUnits="userSpaceOnUse" customEffect="url(#pixso_custom_effect_0)" color-interpolation-filters="sRGB">
			<feFlood flood-opacity="0" result="BackgroundImageFix" />
			<feOffset dx="0.000000" dy="4.000000" in="SourceAlpha" />
			<feGaussianBlur stdDeviation="1.33333337" />
			<feColorMatrix type="matrix" values="0 0 0 0 0 0 0 0 0 0 0 0 0 0 0 0 0 0 0.25 0 " />
			<feBlend result="effect_dropShadow_1" in2="BackgroundImageFix" mode="normal" />
			<feBlend result="shape" in="SourceGraphic" in2="effect_dropShadow_1" mode="normal" />
		</filter>
	</defs>
	<g filter="url(#filter_0)">
		<path id="Arrow_back" d="M0 -2.5L64.5272 -2.5L64.5272 2.5L0 2.5L0 -2.5ZM0.02 2.5L-2.5 2.5L-2.5 -2.5L0.02 -2.5L0.02 2.5ZM60.9917 0L48.6173 -12.3744C47.6274 -13.3643 47.6274 -14.9199 48.6173 -15.9099C49.6073 -16.8998 51.1629 -16.8999 52.1529 -15.9099L66.295 -1.76777C67.285 -0.777816 67.285 0.777816 66.295 1.76777L52.1529 15.9099C51.1629 16.8999 49.6073 16.8999 48.6173 15.9099C47.6274 14.92 47.6274 13.3643 48.6173 12.3744L60.9917 0Z" fill="rgb(177.274,216.137,255)" fill-rule="nonzero" transform="matrix(-1,0.000143482,0.000109741,1,71.0375,16.6453)" />
	</g>
</svg>
