<svg viewBox="0 0 121.006 27.9827" xmlns="http://www.w3.org/2000/svg" xmlns:xlink="http://www.w3.org/1999/xlink" width="121.006348" height="27.982666" fill="none" customFrame="#000000">
	<defs>
		<g id="pixso_custom_effect_0">
			<effect x="0.000000" y="4.000000" visibility="visible" fill="rgb(0,0,0)" fill-opacity="0.25" effectType="dropShadow" stdDeviation="4" radius="0" />
		</g>
		<filter id="filter_0" width="121.006348" height="27.982666" x="0.000000" y="0.000000" filterUnits="userSpaceOnUse" customEffect="url(#pixso_custom_effect_0)" color-interpolation-filters="sRGB">
			<feFlood flood-opacity="0" result="BackgroundImageFix" />
			<feOffset dx="0.000000" dy="4.000000" in="SourceAlpha" />
			<feGaussianBlur stdDeviation="1.33333337" />
			<feColorMatrix type="matrix" values="0 0 0 0 0 0 0 0 0 0 0 0 0 0 0 0 0 0 0.25 0 " />
			<feBlend result="effect_dropShadow_1" in2="BackgroundImageFix" mode="normal" />
			<feBlend result="shape" in="SourceGraphic" in2="effect_dropShadow_1" mode="normal" />
		</filter>
	</defs>
	<g filter="url(#filter_0)">
		<path id="Arrow_teast" d="M0 -1.5L110 -1.5L110 1.5L0 1.5L0 -1.5ZM0.02 1.5L-1.5 1.5L-1.5 -1.5L0.02 -1.5L0.02 1.5ZM107.879 0L100.454 -7.42462C99.8601 -8.01859 99.8601 -8.95197 100.454 -9.54594C101.048 -10.1399 101.981 -10.1399 102.575 -9.54594L111.061 -1.06066C111.655 -0.466692 111.655 0.466692 111.061 1.06066L102.575 9.54594C101.981 10.1399 101.048 10.1399 100.454 9.54594C99.8601 8.95197 99.8601 8.01859 100.454 7.42462L107.879 0Z" fill="rgb(95,45,30)" fill-rule="nonzero" transform="matrix(1,0.000138186,-0.000138186,1,5.50024,9.97729)" />
	</g>
</svg>
